HIERARCHY
ROOT Hips
{
	OFFSET 0.000000 103.266502 0.000000
	CHANNELS 6 Xposition Yposition Zposition Xrotation Yrotation Zrotation 
	JOINT Spine
	{
		OFFSET -0.002400 12.777504 0.315300
		CHANNELS 3 Xrotation Yrotation Zrotation
		JOINT Spine1
		{
			OFFSET -0.002067 5.816869 0.032633
			CHANNELS 3 Xrotation Yrotation Zrotation
			JOINT Spine1_split
			{
				OFFSET -0.002067 5.816869 0.032633
				CHANNELS 3 Xrotation Yrotation Zrotation
				JOINT Spine2
				{
					OFFSET -0.002067 5.816869 0.032633
					CHANNELS 3 Xrotation Yrotation Zrotation
					JOINT Neck
					{
						OFFSET -0.003700 21.199493 -0.826900
						CHANNELS 3 Xrotation Yrotation Zrotation
						JOINT Head
						{
							OFFSET 0.000000 20.442200 4.834800
							CHANNELS 3 Xrotation Yrotation Zrotation
							JOINT HeadTop_End
							{
								OFFSET 0.000000 34.668396 4.968400
								CHANNELS 3 Xrotation Yrotation Zrotation
								End Site
								{
									OFFSET 0.000000 0.000000 0.000000
								}
							}
						}
					}
					JOINT LeftShoulder
					{
						OFFSET 3.288150 8.794197 -1.372250
						CHANNELS 3 Xrotation Yrotation Zrotation
						JOINT LeftShoulder_split
						{
							OFFSET 3.288150 8.794197 -1.372250
							CHANNELS 3 Xrotation Yrotation Zrotation
							JOINT LeftArm
							{
								OFFSET 11.953299 -2.279007 -0.146200
								CHANNELS 3 Xrotation Yrotation Zrotation
								JOINT LeftForeArm
								{
									OFFSET 18.448900 0.000000 0.000000
									CHANNELS 3 Xrotation Yrotation Zrotation
									JOINT LeftHand
									{
										OFFSET 29.527798 0.000000 0.000000
										CHANNELS 3 Xrotation Yrotation Zrotation
										JOINT LeftHandThumb1
										{
											OFFSET 10.739754 -2.369614 9.225399
											CHANNELS 3 Xrotation Yrotation Zrotation
											JOINT LeftHandThumb2
											{
												OFFSET 4.926170 -2.844131 2.844125
												CHANNELS 3 Xrotation Yrotation Zrotation
												JOINT LeftHandThumb3
												{
													OFFSET 4.614891 -2.664413 2.664409
													CHANNELS 3 Xrotation Yrotation Zrotation
													JOINT LeftHandThumb4
													{
														OFFSET 4.432465 -2.559082 2.559083
														CHANNELS 3 Xrotation Yrotation Zrotation
														End Site
														{
															OFFSET 0.000000 0.000000 0.000000
														}
													}
												}
											}
										}
										JOINT LeftHandIndex1
										{
											OFFSET 26.467674 0.187653 6.405298
											CHANNELS 3 Xrotation Yrotation Zrotation
											JOINT LeftHandIndex2
											{
												OFFSET 8.792900 0.000000 0.000000
												CHANNELS 3 Xrotation Yrotation Zrotation
												JOINT LeftHandIndex3
												{
													OFFSET 10.075203 0.000000 0.000000
													CHANNELS 3 Xrotation Yrotation Zrotation
													End Site
													{
														OFFSET 0.000000 0.000000 0.000000
													}
												}
											}
										}
										JOINT LeftHandMiddle1
										{
											OFFSET 25.764404 0.000000 0.000000
											CHANNELS 3 Xrotation Yrotation Zrotation
											JOINT LeftHandMiddle2
											{
												OFFSET 9.393974 0.000000 0.000000
												CHANNELS 3 Xrotation Yrotation Zrotation
												JOINT LeftHandMiddle3
												{
													OFFSET 10.771950 0.000000 0.000000
													CHANNELS 3 Xrotation Yrotation Zrotation
													End Site
													{
														OFFSET 0.000000 0.000000 0.000000
													}
												}
											}
										}
										JOINT LeftHandRing1
										{
											OFFSET 24.660927 0.144547 -6.225808
											CHANNELS 3 Xrotation Yrotation Zrotation
											JOINT LeftHandRing2
											{
												OFFSET 9.393799 0.000000 0.000000
												CHANNELS 3 Xrotation Yrotation Zrotation
												JOINT LeftHandRing3
												{
													OFFSET 9.928497 0.000000 0.000000
													CHANNELS 3 Xrotation Yrotation Zrotation
													End Site
													{
														OFFSET 0.000000 0.000000 0.000000
													}
												}
											}
										}
										JOINT LeftHandPinky1
										{
											OFFSET 23.655350 0.125290 -12.815412
											CHANNELS 3 Xrotation Yrotation Zrotation
											JOINT LeftHandPinky2
											{
												OFFSET 8.425102 0.000000 0.000000
												CHANNELS 3 Xrotation Yrotation Zrotation
												JOINT LeftHandPinky3
												{
													OFFSET 8.147003 0.000000 0.000000
													CHANNELS 3 Xrotation Yrotation Zrotation
													End Site
													{
														OFFSET 0.000000 0.000000 0.000000
													}
												}
											}
										}
									}
								}
							}
						}
					}
					JOINT RightShoulder
					{
						OFFSET -3.249400 8.794197 -1.372250
						CHANNELS 3 Xrotation Yrotation Zrotation
						JOINT RightShoulder_split
						{
							OFFSET -3.249400 8.794197 -1.372250
							CHANNELS 3 Xrotation Yrotation Zrotation
							JOINT RightArm
							{
								OFFSET -11.953299 -2.279007 -0.146200
								CHANNELS 3 Xrotation Yrotation Zrotation
								JOINT RightForeArm
								{
									OFFSET -18.448900 0.000000 0.000000
									CHANNELS 3 Xrotation Yrotation Zrotation
									JOINT RightHand
									{
										OFFSET -29.527802 0.000000 0.000000
										CHANNELS 3 Xrotation Yrotation Zrotation
										JOINT RightHandThumb1
										{
											OFFSET -10.739754 -2.369614 9.225399
											CHANNELS 3 Xrotation Yrotation Zrotation
											JOINT RightHandThumb2
											{
												OFFSET -4.926170 -2.844131 2.844125
												CHANNELS 3 Xrotation Yrotation Zrotation
												JOINT RightHandThumb3
												{
													OFFSET -4.614891 -2.664413 2.664409
													CHANNELS 3 Xrotation Yrotation Zrotation
													JOINT RightHandThumb4
													{
														OFFSET -4.432465 -2.559082 2.559083
														CHANNELS 3 Xrotation Yrotation Zrotation
														End Site
														{
															OFFSET 0.000000 0.000000 0.000000
														}
													}
												}
											}
										}
										JOINT RightHandIndex1
										{
											OFFSET -26.467674 0.187653 6.405298
											CHANNELS 3 Xrotation Yrotation Zrotation
											JOINT RightHandIndex2
											{
												OFFSET -8.792900 0.000000 0.000000
												CHANNELS 3 Xrotation Yrotation Zrotation
												JOINT RightHandIndex3
												{
													OFFSET -10.075203 0.000000 0.000000
													CHANNELS 3 Xrotation Yrotation Zrotation
													End Site
													{
														OFFSET 0.000000 0.000000 0.000000
													}
												}
											}
										}
										JOINT RightHandMiddle1
										{
											OFFSET -25.764404 0.000000 0.000000
											CHANNELS 3 Xrotation Yrotation Zrotation
											JOINT RightHandMiddle2
											{
												OFFSET -9.393974 0.000000 0.000000
												CHANNELS 3 Xrotation Yrotation Zrotation
												JOINT RightHandMiddle3
												{
													OFFSET -10.771950 0.000000 0.000000
													CHANNELS 3 Xrotation Yrotation Zrotation
													End Site
													{
														OFFSET 0.000000 0.000000 0.000000
													}
												}
											}
										}
										JOINT RightHandRing1
										{
											OFFSET -24.660927 0.144547 -6.225808
											CHANNELS 3 Xrotation Yrotation Zrotation
											JOINT RightHandRing2
											{
												OFFSET -9.393799 0.000000 0.000000
												CHANNELS 3 Xrotation Yrotation Zrotation
												JOINT RightHandRing3
												{
													OFFSET -9.928497 0.000000 0.000000
													CHANNELS 3 Xrotation Yrotation Zrotation
													End Site
													{
														OFFSET 0.000000 0.000000 0.000000
													}
												}
											}
										}
										JOINT RightHandPinky1
										{
											OFFSET -23.655350 0.125290 -12.815412
											CHANNELS 3 Xrotation Yrotation Zrotation
											JOINT RightHandPinky2
											{
												OFFSET -8.425102 0.000000 0.000000
												CHANNELS 3 Xrotation Yrotation Zrotation
												JOINT RightHandPinky3
												{
													OFFSET -8.147003 0.000000 0.000000
													CHANNELS 3 Xrotation Yrotation Zrotation
													End Site
													{
														OFFSET 0.000000 0.000000 0.000000
													}
												}
											}
										}
									}
								}
							}
						}
					}
				}
			}
		}
	}
	JOINT LeftUpLeg
	{
		OFFSET 11.394100 -6.187798 -0.413800
		CHANNELS 3 Xrotation Yrotation Zrotation
		JOINT LeftLeg
		{
			OFFSET 0.430247 -32.302673 3.732800
			CHANNELS 3 Xrotation Yrotation Zrotation
			JOINT LeftFoot
			{
				OFFSET -0.430247 -48.264931 -6.423300
				CHANNELS 3 Xrotation Yrotation Zrotation
				JOINT LeftToeBase
				{
					OFFSET 4.230900 -16.068199 23.438400
					CHANNELS 3 Xrotation Yrotation Zrotation
					JOINT LeftToe_End
					{
						OFFSET 4.510700 0.695400 19.974600
						CHANNELS 3 Xrotation Yrotation Zrotation
						End Site
						{
							OFFSET 0.000000 0.000000 0.000000
						}
					}
				}
			}
		}
	}
	JOINT RightUpLeg
	{
		OFFSET -11.333700 -6.187798 -0.413800
		CHANNELS 3 Xrotation Yrotation Zrotation
		JOINT RightLeg
		{
			OFFSET -0.430392 -32.302628 3.733000
			CHANNELS 3 Xrotation Yrotation Zrotation
			JOINT RightFoot
			{
				OFFSET 0.430392 -48.264973 -6.423500
				CHANNELS 3 Xrotation Yrotation Zrotation
				JOINT RightToeBase
				{
					OFFSET -4.230900 -16.068199 23.438400
					CHANNELS 3 Xrotation Yrotation Zrotation
					JOINT RightToe_End
					{
						OFFSET -4.510700 0.695400 19.974600
						CHANNELS 3 Xrotation Yrotation Zrotation
						End Site
						{
							OFFSET 0.000000 0.000000 0.000000
						}
					}
				}
			}
		}
	}
}
MOTION
Frames: 4
Frame Time: 0.016667
0.063760 91.718643 -1.593826 -23.094589 -5.681412 -1.881396 7.688474 -0.922629 -0.315809 15.374075 -1.676405 -0.551058 0.000000 0.000000 0.000000 15.374078 -1.676405 -0.551058 -11.803037 2.538410 0.513533 -20.543597 1.060038 1.922753 -0.000003 -0.000000 0.000000 -0.117974 -1.799430 36.289434 0.000000 0.000000 0.000000 -52.783210 -25.523871 -11.661699 -14.599476 -27.801862 2.187902 12.414560 -2.032448 43.220460 -11.360187 -10.015401 28.397698 19.621110 23.755266 -10.341711 -0.000002 0.000007 -0.000002 -0.000000 0.000000 0.000001 -7.847209 -3.444984 -67.091234 -4.891791 2.725197 -36.316478 0.000000 -0.000000 -0.000000 -10.129922 -3.870837 -67.774273 -1.764490 1.724496 -28.158833 0.000000 0.000000 0.000001 -15.177611 7.295126 -70.201641 7.766209 -0.421213 -31.520056 0.000000 0.000000 0.000001 -16.484525 5.444215 -74.872595 8.342034 -0.189854 -18.882671 -0.000000 0.000000 -0.000001 9.813663 24.196319 -37.946062 0.000000 0.000000 0.000000 -46.242191 23.161320 -4.673687 -22.075469 26.224103 3.020031 0.654833 10.544254 -45.154613 15.333563 1.500900 -10.491449 -10.396776 -3.067646 -10.223933 0.000006 0.000009 0.000007 -0.000000 0.000000 -0.000000 0.919881 3.496422 64.452199 1.728451 9.563291 38.865972 -0.000001 0.000000 -0.000002 -6.652417 -3.924334 64.485708 9.406011 5.988772 38.253656 0.000002 -0.000001 0.000000 -5.546320 1.390181 64.784802 0.228421 -1.796009 39.151611 -0.000000 0.000001 0.000000 -17.806373 -16.572301 61.043299 25.318656 3.855914 27.748793 0.000000 -0.000000 -0.000000 -112.326293 -3.536274 31.300827 123.625919 -20.462106 0.335919 -6.602797 0.130027 4.976770 -46.495331 -2.668700 -1.962206 -0.000001 -0.000001 -0.000000 -132.427095 9.115932 -32.758916 128.536223 19.486386 -2.194242 2.035509 -1.194244 9.867843 -38.850116 6.007516 10.674952 0.000000 -0.000001 0.000000 
0.041947 91.454666 -1.554737 -22.810281 -5.668872 -1.885573 7.637932 -0.886737 -0.279998 15.273321 -1.606444 -0.492266 0.000000 0.000000 0.000000 15.273324 -1.606443 -0.492266 -14.761854 2.627877 0.599232 -18.644386 1.325023 1.660059 -0.000000 -0.000000 -0.000000 -0.463115 -1.070546 36.646110 0.000000 0.000000 0.000000 -52.830871 -25.294849 -12.145901 -14.734603 -28.465331 2.458228 11.791898 -2.162995 40.907591 -11.360192 -10.015418 28.397707 19.621119 23.755263 -10.341705 -0.000003 0.000007 -0.000001 0.000000 -0.000001 0.000003 -7.847199 -3.445006 -67.091234 -4.891819 2.725219 -36.316481 -0.000000 -0.000000 -0.000002 -10.129904 -3.870875 -67.774280 -1.764525 1.724326 -28.158828 0.000001 0.000000 -0.000000 -15.177623 7.295066 -70.201647 7.766215 -0.421194 -31.520070 -0.000001 -0.000000 -0.000001 -16.484508 5.444114 -74.872602 8.341966 -0.189778 -18.882680 -0.000001 -0.000001 -0.000001 9.574052 23.264850 -38.203427 0.000000 0.000000 0.000000 -46.458161 23.286050 -4.045068 -21.711676 26.550153 2.475539 0.014071 10.416168 -45.533326 15.333571 1.500887 -10.491462 -10.396773 -3.067647 -10.223934 0.000005 0.000009 0.000008 0.000000 -0.000000 0.000000 0.919890 3.496420 64.452185 1.728488 9.563364 38.865962 -0.000000 0.000000 0.000002 -6.652417 -3.924348 64.485681 9.406013 5.988765 38.253632 0.000001 -0.000001 -0.000001 -5.546333 1.390169 64.784781 0.228514 -1.795953 39.151624 0.000000 0.000001 0.000000 -17.806368 -16.572305 61.043293 25.318813 3.856027 27.748770 -0.000000 -0.000001 0.000000 -113.093432 -3.762506 30.974682 123.927389 -20.189600 0.348591 -6.713442 0.200223 4.802908 -46.287246 -2.741866 -2.033669 0.000001 0.000001 -0.000001 -133.062713 9.210675 -32.171694 128.730638 19.360195 -2.195260 1.700331 -1.304570 10.240140 -38.486764 5.776737 10.443113 -0.000001 0.000000 0.000000 
0.018373 91.285698 -1.537281 -22.412841 -5.641353 -1.903779 7.520855 -0.850764 -0.236717 15.039627 -1.534572 -0.418301 0.000000 0.000000 0.000000 15.039639 -1.534572 -0.418302 -17.769910 2.710620 0.790330 -16.597923 1.605600 1.335112 0.000000 0.000000 0.000000 -0.794088 -0.411283 37.037643 0.000000 0.000000 0.000000 -53.107361 -25.119633 -13.105114 -14.758149 -28.996667 2.732931 11.472781 -2.333871 38.824643 -11.360182 -10.015416 28.397717 19.621122 23.755266 -10.341704 -0.000003 0.000008 -0.000002 -0.000000 -0.000001 -0.000000 -7.847211 -3.445000 -67.091213 -4.891844 2.725239 -36.316478 -0.000000 -0.000000 0.000000 -10.129899 -3.870915 -67.774260 -1.764545 1.724218 -28.158819 0.000000 0.000000 -0.000000 -15.177570 7.295027 -70.201627 7.766210 -0.421206 -31.520053 0.000000 0.000001 -0.000000 -16.484479 5.444033 -74.872581 8.341897 -0.189707 -18.882688 -0.000001 -0.000000 -0.000001 9.273476 22.311031 -38.387910 0.000000 0.000000 0.000000 -46.870920 23.501716 -2.942149 -21.212585 27.007449 1.920317 -0.431578 10.106989 -45.634847 15.333566 1.500907 -10.491443 -10.396774 -3.067647 -10.223933 0.000005 0.000009 0.000006 -0.000000 -0.000000 -0.000001 0.919885 3.496459 64.452192 1.728560 9.563382 38.865959 -0.000000 0.000000 0.000000 -6.652425 -3.924326 64.485694 9.405999 5.988775 38.253642 -0.000000 -0.000002 -0.000002 -5.546326 1.390174 64.784795 0.228583 -1.795857 39.151618 0.000000 0.000001 -0.000001 -17.806371 -16.572300 61.043306 25.318970 3.856110 27.748769 0.000000 0.000000 -0.000000 -113.897304 -3.935099 30.620274 124.133566 -19.852256 0.363467 -6.656174 0.252953 4.729544 -46.159761 -2.756071 -2.168688 -0.000001 0.000001 -0.000000 -133.671255 9.206612 -31.582043 128.820482 19.133318 -2.185143 1.511629 -1.388461 10.458615 -38.305432 5.515455 10.350252 0.000000 -0.000001 -0.000000 
-0.006233 91.192909 -1.534012 -21.942683 -5.612106 -1.937002 7.356238 -0.815570 -0.186991 14.710902 -1.463378 -0.331661 0.000000 0.000000 0.000000 14.710906 -1.463384 -0.331660 -20.744666 2.780008 1.039820 -14.458337 1.885081 0.975407 -0.000003 0.000000 0.000000 -1.099287 0.158975 37.454196 0.000000 0.000000 0.000000 -53.530484 -24.931217 -14.399210 -14.700099 -29.457906 3.027302 11.402003 -2.529855 36.882700 -11.360177 -10.015403 28.397697 19.621119 23.755253 -10.341700 -0.000003 0.000006 -0.000002 -0.000000 -0.000000 -0.000001 -7.847220 -3.444988 -67.091227 -4.891878 2.725263 -36.316478 -0.000000 0.000000 -0.000001 -10.129888 -3.870934 -67.774273 -1.764573 1.724061 -28.158819 0.000000 0.000001 0.000003 -15.177582 7.295003 -70.201634 7.766216 -0.421197 -31.520077 -0.000000 0.000001 0.000001 -16.484465 5.443949 -74.872602 8.341834 -0.189602 -18.882698 -0.000000 -0.000000 -0.000001 8.958985 21.389437 -38.537126 0.000000 0.000000 0.000000 -47.400830 23.753709 -1.536024 -20.640019 27.551684 1.343285 -0.735309 9.715925 -45.379029 15.333577 1.500909 -10.491463 -10.396776 -3.067646 -10.223932 0.000005 0.000009 0.000009 0.000000 0.000000 -0.000002 0.919908 3.496468 64.452179 1.728608 9.563439 38.865935 -0.000001 0.000001 0.000002 -6.652416 -3.924323 64.485708 9.406009 5.988760 38.253642 0.000000 -0.000002 -0.000000 -5.546312 1.390172 64.784795 0.228679 -1.795791 39.151621 0.000000 -0.000000 -0.000000 -17.806373 -16.572288 61.043306 25.319137 3.856173 27.748765 -0.000001 -0.000000 -0.000000 -114.723464 -4.072741 30.254190 124.263380 -19.455905 0.382564 -6.417262 0.294782 4.724206 -46.170948 -2.734059 -2.361632 -0.000000 0.000001 -0.000000 -134.266274 9.116118 -30.991823 128.833938 18.808620 -2.175085 1.482033 -1.442495 10.560196 -38.304722 5.237337 10.376535 0.000001 0.000000 -0.000001 
